# xmcd
#
# Track frame offsets:
#	150
#	17438
#	31245
#	48191
#	67525
#	82972
#	98967
#	121549
#	134666
#	154076
#
# Disc length: 2262 seconds
#
# Revision: 1
# Processed by: cddbd v1.5.2PL0 Copyright (c) Steve Scherf et al.
# Submitted via: audiograbber 1.83.01
#
DISCID=6908d40a
DTITLE=Vince Gill - All American Country
DYEAR=1997
DGENRE=Country
TTITLE0=Cinderella
TTITLE1=Everybody's Sweetheart
TTITLE2=If It Weren't For Him
TTITLE3=True Love
TTITLE4=Turn Me Loose
TTITLE5=Victim Of Life's Circumstances
TTITLE6=With You
TTITLE7=I Can't Hold Back
TTITLE8=Fool Fool
TTITLE9=Savannah (Don't You Ever Think
EXTD=
EXTT0=
EXTT1=
EXTT2=
EXTT3=
EXTT4=
EXTT5=
EXTT6=
EXTT7=
EXTT8=
EXTT9=
PLAYORDER=
